<svg xmlns="http://www.w3.org/2000/svg" viewBox="0 0 1132 469">
    <defs>
        <style>
            .cls-1{fill:#5186ca;}.cls-1,.cls-2,.cls-3{opacity:0.8;}.cls-2{fill:#79bce8;}.cls-3{fill:#a891e2;}.cls-4{font-size:185.15px;font-family:Montserrat-ExtraBold,
            Montserrat;}.cls-4,.cls-6{font-weight:800;}.cls-5{letter-spacing:-0.01em;}.cls-6{font-size:23px;font-family:CircularStd-Black,
            Circular
            Std;}.cls-7{letter-spacing:-0.04em;}.cls-8{letter-spacing:-0.02em;}.cls-9{letter-spacing:0em;}.cls-10{letter-spacing:0em;}.cls-11{letter-spacing:-0.01em;}.cls-12{letter-spacing:-0.01em;}.cls-13{letter-spacing:0.01em;}.cls-14{letter-spacing:0.01em;}.cls-15{letter-spacing:0em;}.cls-16{letter-spacing:0em;}.cls-17{letter-spacing:0em;}.cls-18{letter-spacing:0em;}.cls-19{letter-spacing:0em;}.cls-20{letter-spacing:-0.03em;}
        </style>
    </defs>
    <g id="Layer_2" data-name="Layer 2">
        <path class="cls-1"
              d="M307,342.17a188.35,188.35,0,0,1-44,7c-11,.42-22.95.92-38-3a105.83,105.83,0,0,1-17-6c-2.49-32.93-4-68.35-4-106,0-33,1.16-68.46,4-106,17.25.58,30.28,4.93,40,10C300,165.29,322.62,246.89,307,342.17Z"/>
        <path class="cls-2"
              d="M208,340.17a103.7,103.7,0,0,0,17,6c15.39,4,27.91,3.45,39,3a184.84,184.84,0,0,0,26-3,119.39,119.39,0,0,0,17-4c16.93-5.87,26.93-19.47,31-25,17.37-23.62,17.11-55.75,17-73-.25-39.87-.17-80.47,0-131A252.26,252.26,0,0,0,273,173.61C214.81,238.59,208.87,314.88,208,340.17Z"/>
        <path class="cls-3"
              d="M307,342.17a223.51,223.51,0,0,1-50,7c-13.27.3-21.28-.84-27-2a102.94,102.94,0,0,1-22-7c-8.67-4-27.78-12.76-36-32a50.58,50.58,0,0,1-3-10c-6.37-29.54-5.29-59.49-4.94-86.75.16-12.08.85-23.48,1.94-37.25a169.56,169.56,0,0,1,46,18C286.15,234.75,303.44,321.53,307,342.17Z"/>
    </g>
    <g id="Layer_5" data-name="Layer 5">
        <text class="cls-4" transform="translate(385 285.2) scale(0.85 1)">Wi
            <tspan class="cls-5" x="277.17" y="0">C</tspan>
            <tspan x="412.33" y="0">SM</tspan>
        </text>
        <text class="cls-6" transform="translate(392.65 322.25) scale(0.99 1)">
            <tspan class="cls-7">W</tspan>
            <tspan x="22.98" y="0">omen in</tspan>
            <tspan class="cls-8" x="115.37" y="0">C</tspan>
            <tspan x="132.75" y="0">om</tspan>
            <tspan class="cls-9" x="167.05" y="0">p</tspan>
            <tspan x="181.33" y="0">u</tspan>
            <tspan class="cls-10" x="195.04" y="0">t</tspan>
            <tspan x="203.8" y="0">er</tspan>
            <tspan class="cls-9" x="231.58" y="0">S</tspan>
            <tspan x="245.57" y="0">cien</tspan>
            <tspan class="cls-11" x="291.57" y="0">c</tspan>
            <tspan class="cls-12" x="304.35" y="0">e</tspan>
            <tspan x="316.96" y="0">,</tspan>
            <tspan class="cls-13" x="330" y="0">S</tspan>
            <tspan class="cls-14" x="344.31" y="0">t</tspan>
            <tspan class="cls-15" x="353.3" y="0">a</tspan>
            <tspan class="cls-16" x="365.74" y="0">t</tspan>
            <tspan x="374.64" y="0">is</tspan>
            <tspan class="cls-17" x="391.91" y="0">t</tspan>
            <tspan class="cls-18" x="400.81" y="0">ics</tspan>
            <tspan class="cls-7" x="430.99" y="0" xml:space="preserve"> &amp;</tspan>
            <tspan x="451.53" y="0"></tspan>
            <tspan class="cls-10" x="457.19" y="0">M</tspan>
            <tspan class="cls-19" x="479.17" y="0">a</tspan>
            <tspan class="cls-20" x="491.62" y="0">t</tspan>
            <tspan x="499.67" y="0">hem</tspan>
            <tspan class="cls-19" x="546.93" y="0">a</tspan>
            <tspan class="cls-17" x="559.37" y="0">t</tspan>
            <tspan class="cls-18" x="568.27" y="0">ics</tspan>
        </text>
    </g>
</svg>
