<svg xmlns="http://www.w3.org/2000/svg" viewBox="0 0 385 382"><defs><style>.cls-1{fill:#5186ca;}.cls-1,.cls-2,.cls-3{opacity:0.8;}.cls-2{fill:#79bce8;}.cls-3{fill:#a891e2;}</style></defs><g id="Layer_4" data-name="Layer 4"><path class="cls-1" d="M261.1,353.12a278.52,278.52,0,0,1-65,10.33c-16.22.62-33.89,1.35-56.11-4.43a157,157,0,0,1-25.1-8.86C111.24,301.54,109,249.23,109,193.65c0-48.76,1.72-101.09,5.91-156.52,25.46.85,44.7,7.28,59.06,14.77C250.77,91.94,284.16,212.43,261.1,353.12Z"/><path class="cls-2" d="M114.92,350.16A154.6,154.6,0,0,0,140,359c22.72,5.88,41.21,5.1,57.58,4.43A273.29,273.29,0,0,0,236,359c8.42-1.56,17.35-3.22,25.11-5.9,25-8.67,39.76-28.75,45.77-36.92,25.65-34.88,25.26-82.32,25.1-107.79-.37-58.88-.25-118.82,0-193.43a372.63,372.63,0,0,0-121.15,89.24C125,200.17,116.2,312.82,114.92,350.16Z"/><path class="cls-3" d="M261.1,353.12a331.24,331.24,0,0,1-73.83,10.33c-19.6.44-31.42-1.24-39.87-2.95a153,153,0,0,1-32.48-10.34c-12.8-5.88-41-18.85-53.16-47.25a74.65,74.65,0,0,1-4.43-14.76c-9.4-43.63-7.81-87.85-7.29-128.1.23-17.84,1.26-34.67,2.86-55a250.21,250.21,0,0,1,67.92,26.58C230.31,194.5,255.84,322.64,261.1,353.12Z"/></g></svg>