<svg xmlns="http://www.w3.org/2000/svg" viewBox="0 0 379 382"><defs><style>.cls-1{fill:#5186ca;}.cls-1,.cls-2,.cls-3{opacity:0.8;}.cls-2{fill:#79bce8;}.cls-3{fill:#a891e2;}.cls-4{font-size:54.08px;fill:#fff;font-family:Montserrat-Black, Montserrat;font-weight:800;letter-spacing:0.03em;}.cls-5{letter-spacing:0.03em;}.cls-6{letter-spacing:0.02em;}.cls-7{letter-spacing:0.03em;}</style></defs><g id="Layer_6" data-name="Layer 6"><path class="cls-1" d="M257.63,353.58a268.89,268.89,0,0,1-62.75,10c-15.66.6-32.73,1.3-54.19-4.28a151.63,151.63,0,0,1-24.24-8.55c-3.55-47-5.71-97.49-5.71-151.17,0-47.1,1.66-97.64,5.71-151.17,24.59.82,43.17,7,57,14.26C247.66,101.32,279.91,217.7,257.63,353.58Z"/><path class="cls-2" d="M116.45,350.73a149.91,149.91,0,0,0,24.24,8.55c21.95,5.68,39.81,4.92,55.62,4.28a265.45,265.45,0,0,0,37.08-4.28c8.12-1.5,16.75-3.1,24.24-5.7,24.15-8.37,38.41-27.77,44.21-35.65,24.78-33.7,24.4-79.52,24.24-104.11-.36-56.87-.24-114.76,0-186.82a359.75,359.75,0,0,0-117,86.19C126.16,205.85,117.68,314.66,116.45,350.73Z"/><path class="cls-3" d="M257.63,353.58a318.86,318.86,0,0,1-71.31,10c-18.92.42-30.34-1.2-38.5-2.85a147.33,147.33,0,0,1-31.37-10c-12.36-5.68-39.62-18.21-51.34-45.64a71,71,0,0,1-4.28-14.26c-9.09-42.14-7.55-84.85-7-123.72C54,149.88,55,133.62,56.55,114a241.84,241.84,0,0,1,65.6,25.67C227.9,200.38,252.55,324.15,257.63,353.58Z"/><text class="cls-4" transform="matrix(0, 0.93, -1, 0, 272.56, 82.06)">W<tspan class="cls-5" x="66.84" y="0">i</tspan><tspan class="cls-6" x="85.82" y="0">C</tspan><tspan class="cls-7" x="126.86" y="0">SM</tspan></text></g></svg>